# This file uses centimeters as units for non-parametric coordinates.

mtllib iceblock.mtl
g default
v -0.007629 -0.891728 0.022919
v 0.070520 -0.891728 -0.041971
v 0.148668 -0.891728 -0.106861
v -0.264078 -0.560272 -0.377048
v -0.201876 -0.553944 -0.370027
v -0.128637 -0.609566 -0.375359
v -0.305483 -0.585016 -0.377393
v -0.621470 -0.018356 -0.875359
v -0.159527 -0.638077 -0.427388
v -0.340759 -0.624955 -0.426079
v -0.268367 -0.729741 -0.450104
v -0.212241 -0.695357 -0.476484
v -0.119971 -1.073269 -0.112378
v -0.041822 -1.073269 -0.177268
v 0.036327 -1.073269 -0.242158
v -0.063800 -0.982498 -0.044730
v 0.014349 -0.982498 -0.109620
v 0.092498 -0.982498 -0.174509
v -0.145329 -0.840980 0.120725
v 0.120754 -1.016790 0.120725
v 0.386838 -1.192600 0.120725
v 0.315593 -0.474898 -0.012733
v 0.414023 -0.572937 0.040568
v 0.532970 -0.733232 0.025368
v 0.233796 -0.418527 -0.066643
v 0.871525 0.119480 -0.066643
v 0.570291 -0.730695 -0.066643
v 0.252462 -0.412836 -0.171061
v 0.388257 -0.611933 -0.254011
v 0.552420 -0.705383 -0.201345
v -0.145329 -0.840980 -0.254011
v 0.120754 -1.016790 -0.254011
v 0.386838 -1.192600 -0.254011
v -0.145329 -0.840980 -0.066643
v 0.120754 -1.016790 -0.066643
v 0.386838 -1.192600 -0.066643
v -0.199020 -1.313961 0.292804
v 0.104753 -1.313961 0.292804
v 0.408525 -1.313961 0.292804
v -0.024948 -0.234300 0.076434
v 0.104753 -0.287434 0.162849
v 0.283449 -0.418969 0.138205
v -0.119553 -0.230559 -0.010968
v 0.104753 1.313961 -0.010968
v 0.311775 -0.375185 -0.010968
v -0.107706 -0.201541 -0.180258
v 0.104753 -0.377622 -0.314741
v 0.284283 -0.353445 -0.229355
v -0.199020 -1.313961 -0.314741
v 0.104753 -1.313961 -0.314741
v 0.408525 -1.313961 -0.314741
v -0.199020 -1.313961 -0.010968
v 0.104753 -1.313961 -0.010968
v 0.408525 -1.313961 -0.010968
v -0.055793 -1.133479 0.050158
v 0.119859 -1.072603 0.134961
v 0.295511 -1.011727 0.219764
v -0.180006 -0.729208 0.299354
v -0.093942 -0.773479 0.363078
v 0.036782 -0.747609 0.363356
v -0.235489 -0.687320 0.230878
v -0.427475 -0.326718 0.733213
v 0.044042 -0.630439 0.310117
v -0.234683 -0.562642 0.158908
v -0.075158 -0.463604 0.101727
v 0.023617 -0.481381 0.200864
v -0.055793 -0.715838 -0.249647
v 0.119859 -0.654962 -0.164844
v 0.295511 -0.594086 -0.080040
v -0.055793 -0.924659 -0.099745
v 0.119859 -0.863782 -0.014941
v 0.295511 -0.802906 0.069862
vt 0.375000 0.000000
vt 0.500000 0.000000
vt 0.625000 0.000000
vt 0.375000 0.250000
vt 0.500000 0.250000
vt 0.625000 0.250000
vt 0.375000 0.375000
vt 0.500000 0.375000
vt 0.625000 0.375000
vt 0.375000 0.500000
vt 0.500000 0.500000
vt 0.625000 0.500000
vt 0.375000 0.750000
vt 0.500000 0.750000
vt 0.625000 0.750000
vt 0.375000 0.875000
vt 0.500000 0.875000
vt 0.625000 0.875000
vt 0.375000 1.000000
vt 0.500000 1.000000
vt 0.625000 1.000000
vt 0.875000 0.000000
vt 0.750000 0.000000
vt 0.875000 0.250000
vt 0.750000 0.250000
vt 0.125000 0.000000
vt 0.250000 0.000000
vt 0.125000 0.250000
vt 0.250000 0.250000
vt 0.375000 0.000000
vt 0.500000 0.000000
vt 0.375000 0.250000
vt 0.500000 0.250000
vt 0.625000 0.000000
vt 0.625000 0.250000
vt 0.500000 0.375000
vt 0.375000 0.375000
vt 0.625000 0.375000
vt 0.500000 0.500000
vt 0.375000 0.500000
vt 0.625000 0.500000
vt 0.375000 0.750000
vt 0.500000 0.750000
vt 0.625000 0.750000
vt 0.375000 0.875000
vt 0.500000 0.875000
vt 0.625000 0.875000
vt 0.375000 1.000000
vt 0.500000 1.000000
vt 0.625000 1.000000
vt 0.875000 0.000000
vt 0.875000 0.250000
vt 0.750000 0.000000
vt 0.750000 0.250000
vt 0.125000 0.000000
vt 0.250000 0.000000
vt 0.125000 0.250000
vt 0.250000 0.250000
vt 0.375000 0.000000
vt 0.500000 0.000000
vt 0.375000 0.250000
vt 0.500000 0.250000
vt 0.625000 0.000000
vt 0.625000 0.250000
vt 0.500000 0.375000
vt 0.375000 0.375000
vt 0.625000 0.375000
vt 0.500000 0.500000
vt 0.375000 0.500000
vt 0.625000 0.500000
vt 0.375000 0.750000
vt 0.500000 0.750000
vt 0.625000 0.750000
vt 0.375000 0.875000
vt 0.500000 0.875000
vt 0.625000 0.875000
vt 0.375000 1.000000
vt 0.500000 1.000000
vt 0.625000 1.000000
vt 0.875000 0.000000
vt 0.875000 0.250000
vt 0.750000 0.000000
vt 0.750000 0.250000
vt 0.125000 0.000000
vt 0.250000 0.000000
vt 0.125000 0.250000
vt 0.250000 0.250000
vt 0.375000 0.000000
vt 0.500000 0.000000
vt 0.375000 0.250000
vt 0.500000 0.250000
vt 0.625000 0.000000
vt 0.625000 0.250000
vt 0.500000 0.375000
vt 0.375000 0.375000
vt 0.625000 0.375000
vt 0.500000 0.500000
vt 0.375000 0.500000
vt 0.625000 0.500000
vt 0.375000 0.750000
vt 0.500000 0.750000
vt 0.625000 0.750000
vt 0.375000 0.875000
vt 0.500000 0.875000
vt 0.625000 0.875000
vt 0.375000 1.000000
vt 0.500000 1.000000
vt 0.625000 1.000000
vt 0.875000 0.000000
vt 0.875000 0.250000
vt 0.750000 0.000000
vt 0.750000 0.250000
vt 0.125000 0.000000
vt 0.250000 0.000000
vt 0.125000 0.250000
vt 0.250000 0.250000
vn 0.367364 0.818107 0.442430
vn 0.370994 0.811515 0.451450
vn -0.012390 0.704669 0.709428
vn 0.069466 0.723282 0.687050
vn 0.378445 0.805635 0.455775
vn 0.569995 0.762878 0.305161
vn 0.417843 0.774874 0.474319
vn -0.183364 -0.009402 -0.983000
vn -0.216516 0.579604 0.785608
vn -0.645577 0.268332 0.715003
vn 0.747974 0.081381 -0.658720
vn 0.842688 0.439743 -0.310648
vn -0.413461 -0.609556 -0.676382
vn -0.927301 -0.363768 0.088235
vn 0.390195 -0.280775 -0.876877
vn -0.828278 -0.531672 -0.176862
vn -0.612562 -0.650489 -0.449034
vn -0.498928 -0.707536 -0.500464
vn -0.447723 -0.694646 -0.563037
vn -0.085898 -0.641976 -0.761898
vn -0.475488 -0.667821 -0.572648
vn 0.458840 -0.695775 0.552597
vn 0.458840 -0.695775 0.552597
vn 0.458840 -0.695775 0.552597
vn 0.458840 -0.695775 0.552597
vn 0.458840 -0.695775 0.552597
vn 0.458840 -0.695775 0.552597
vn 0.458840 -0.695775 0.552597
vn 0.458839 -0.695775 0.552597
vn 0.458839 -0.695775 0.552597
vn 0.729269 0.056881 -0.681858
vn 0.701869 -0.004206 -0.712294
vn 0.728203 0.058136 -0.682892
vn 0.736107 0.042656 -0.675520
vn 0.725847 0.061421 -0.685108
vn 0.788642 0.145959 -0.597277
vn -0.792167 0.036169 0.609232
vn -0.799439 0.057159 0.598022
vn -0.805441 0.008169 0.592620
vn -0.664836 0.198463 0.720142
vn -0.812035 0.070768 0.579302
vn -0.468453 0.398430 0.788547
vn 0.127901 0.193574 0.972713
vn 0.114015 0.177456 0.977502
vn -0.024754 0.247445 0.968586
vn -0.016581 0.188294 0.981973
vn 0.111013 0.168016 0.979514
vn 0.161310 0.095816 0.982241
vn 0.038573 0.127960 0.991029
vn 0.445648 0.646770 -0.618940
vn -0.261511 0.326964 0.908133
vn -0.567989 0.673268 0.473391
vn 0.940645 -0.333290 0.064066
vn 0.542507 -0.125771 0.830583
vn 0.115667 0.174090 -0.977913
vn -0.303745 0.510982 -0.804137
vn 0.675079 -0.142968 -0.723760
vn -0.130544 0.304115 -0.943648
vn 0.019629 0.088938 -0.995844
vn -0.038866 0.090541 -0.995134
vn 0.040838 0.024865 -0.998856
vn 0.146600 -0.036029 -0.988539
vn 0.058002 0.087784 -0.994449
vn -0.551268 -0.834328 0.000000
vn -0.551268 -0.834328 0.000000
vn -0.551268 -0.834328 0.000000
vn -0.551268 -0.834328 0.000000
vn -0.551268 -0.834328 0.000000
vn -0.551268 -0.834328 0.000000
vn -0.551268 -0.834328 0.000000
vn -0.551268 -0.834328 0.000000
vn -0.551268 -0.834328 0.000000
vn 0.946815 -0.321778 0.000000
vn 0.926587 -0.351718 -0.133160
vn 0.948085 -0.318017 0.000029
vn 0.929337 -0.369100 0.009941
vn 0.952945 -0.303145 0.000000
vn 0.910641 -0.337450 0.238454
vn -0.732598 0.680662 0.000000
vn -0.680512 0.732155 0.029196
vn -0.738931 0.670603 -0.065371
vn -0.652916 0.585951 0.479961
vn -0.621940 0.783065 0.000000
vn -0.494907 0.520676 0.695675
vn 0.000000 0.196499 0.980504
vn -0.003029 0.181441 0.983397
vn -0.345128 0.144392 0.927382
vn -0.262074 0.121205 0.957406
vn 0.000000 0.170217 0.985407
vn 0.180472 0.132324 0.974639
vn -0.019288 0.107887 0.993976
vn 0.272333 0.742416 -0.612089
vn -0.588309 0.094619 0.803081
vn -0.932543 0.135430 0.334696
vn 0.991674 0.121540 0.042551
vn 0.748667 0.133106 0.649446
vn 0.049088 0.176539 -0.983069
vn -0.703600 0.175555 -0.688569
vn 0.805289 0.161424 -0.570484
vn -0.441784 0.143326 -0.885598
vn -0.121494 0.090116 -0.988493
vn -0.077232 0.025056 -0.996698
vn 0.018404 0.040570 -0.999007
vn 0.314496 0.025572 -0.948914
vn 0.000000 0.088547 -0.996072
vn 0.000000 -1.000000 0.000000
vn 0.000000 -1.000000 0.000000
vn 0.000000 -1.000000 0.000000
vn 0.000000 -1.000000 0.000000
vn 0.000000 -1.000000 0.000000
vn 0.000000 -1.000000 0.000000
vn 0.000000 -1.000000 0.000000
vn 0.000000 -1.000000 0.000000
vn 0.000000 -1.000000 0.000000
vn 0.991738 0.128281 0.000000
vn 0.990458 0.108918 -0.084434
vn 0.991413 0.130771 -0.000151
vn 0.994731 0.102517 0.001022
vn 0.990376 0.138407 0.000000
vn 0.981537 0.111237 0.155598
vn -0.996648 0.081810 0.000000
vn -0.992805 0.119289 0.010354
vn -0.996304 0.075565 -0.040855
vn -0.953049 0.069906 0.294635
vn -0.987251 0.159173 0.000000
vn -0.834547 0.090559 0.543443
vn -0.196222 -0.557513 0.806645
vn -0.186894 -0.584323 0.789707
vn -0.444999 -0.671980 0.591962
vn -0.348324 -0.713020 0.608501
vn -0.172432 -0.595495 0.784635
vn 0.018689 -0.571678 0.820265
vn -0.163816 -0.699006 0.696099
vn -0.220904 0.794225 0.566046
vn -0.665876 -0.696798 0.266610
vn -0.924838 -0.370091 -0.087790
vn 0.741079 0.370296 0.560074
vn 0.546032 -0.125574 0.828300
vn -0.167067 0.940148 -0.297003
vn -0.801169 0.408922 -0.436934
vn 0.564159 0.787109 0.249368
vn -0.579331 0.646689 -0.496155
vn -0.165945 0.848956 -0.501732
vn -0.182371 0.793948 -0.579989
vn -0.005992 0.860112 -0.510070
vn 0.238715 0.900121 -0.364415
vn -0.092705 0.889841 -0.446754
vn 0.510892 -0.501306 -0.698342
vn 0.510892 -0.501306 -0.698342
vn 0.510892 -0.501306 -0.698342
vn 0.510892 -0.501306 -0.698342
vn 0.510892 -0.501306 -0.698342
vn 0.510892 -0.501306 -0.698342
vn 0.510892 -0.501306 -0.698342
vn 0.510892 -0.501306 -0.698342
vn 0.510892 -0.501306 -0.698342
vn 0.734077 0.396001 0.551647
vn 0.748585 0.426031 0.508053
vn 0.734122 0.396065 0.551541
vn 0.761803 0.370388 0.531478
vn 0.722872 0.402950 0.561327
vn 0.740199 0.317510 0.592699
vn -0.920436 -0.227952 -0.317547
vn -0.942004 -0.207744 -0.263574
vn -0.917150 -0.212161 -0.337376
vn -0.885648 -0.431481 -0.171617
vn -0.962093 -0.159040 -0.221550
vn -0.893767 -0.444430 -0.060521
s 1
g pCube5
usemtl initialShadingGroup
f 1/1/1 2/2/2 4/4/3
f 4/4/3 2/2/2 5/5/4
f 3/3/5 6/6/6 2/2/2
f 2/2/2 6/6/6 5/5/4
s 2
f 5/5/7 8/8/8 4/4/9
f 4/4/9 8/8/8 7/7/10
f 9/9/11 8/8/8 6/6/12
f 5/5/7 6/6/12 8/8/8
f 11/11/13 10/10/14 8/8/8
f 7/7/10 8/8/8 10/10/14
f 11/11/13 8/8/8 12/12/15
f 8/8/8 9/9/11 12/12/15
s 4
f 10/10/16 11/11/17 13/13/18
f 13/13/18 11/11/17 14/14/19
f 11/11/17 12/12/20 14/14/19
f 14/14/19 12/12/20 15/15/21
s 5
f 13/13/22 14/14/23 16/16/24
f 16/16/24 14/14/23 17/17/25
f 14/14/23 15/15/26 17/17/25
f 17/17/25 15/15/26 18/18/27
f 16/16/24 17/17/25 1/19/28
f 1/19/28 17/17/25 2/20/29
f 17/17/25 18/18/27 2/20/29
f 2/20/29 18/18/27 3/21/30
s 6
f 15/22/31 12/24/32 18/23/33
f 18/23/33 12/24/32 9/25/34
f 3/3/35 18/23/33 6/6/36
f 6/6/36 18/23/33 9/25/34
s 7
f 13/26/37 16/27/38 10/28/39
f 10/28/39 16/27/38 7/29/40
f 1/1/41 4/4/42 16/27/38
f 16/27/38 4/4/42 7/29/40
s 8
f 19/30/43 20/31/44 22/32/45
f 22/32/45 20/31/44 23/33/46
f 21/34/47 24/35/48 20/31/44
f 20/31/44 24/35/48 23/33/46
s 9
f 23/33/49 26/36/50 22/32/51
f 22/32/51 26/36/50 25/37/52
f 27/38/53 26/36/50 24/35/54
f 23/33/49 24/35/54 26/36/50
f 29/39/55 28/40/56 26/36/50
f 25/37/52 26/36/50 28/40/56
f 29/39/55 26/36/50 30/41/57
f 26/36/50 27/38/53 30/41/57
s 11
f 28/40/58 29/39/59 31/42/60
f 31/42/60 29/39/59 32/43/61
f 29/39/59 30/41/62 32/43/61
f 32/43/61 30/41/62 33/44/63
s 12
f 31/42/64 32/43/65 34/45/66
f 34/45/66 32/43/65 35/46/67
f 32/43/65 33/44/68 35/46/67
f 35/46/67 33/44/68 36/47/69
f 34/45/66 35/46/67 19/48/70
f 19/48/70 35/46/67 20/49/71
f 35/46/67 36/47/69 20/49/71
f 20/49/71 36/47/69 21/50/72
s 13
f 33/51/73 30/52/74 36/53/75
f 36/53/75 30/52/74 27/54/76
f 21/34/77 36/53/75 24/35/78
f 24/35/78 36/53/75 27/54/76
s 14
f 31/55/79 34/56/80 28/57/81
f 28/57/81 34/56/80 25/58/82
f 19/30/83 22/32/84 34/56/80
f 34/56/80 22/32/84 25/58/82
s 15
f 37/59/85 38/60/86 40/61/87
f 40/61/87 38/60/86 41/62/88
f 39/63/89 42/64/90 38/60/86
f 38/60/86 42/64/90 41/62/88
s 16
f 41/62/91 44/65/92 40/61/93
f 40/61/93 44/65/92 43/66/94
f 45/67/95 44/65/92 42/64/96
f 41/62/91 42/64/96 44/65/92
f 47/68/97 46/69/98 44/65/92
f 43/66/94 44/65/92 46/69/98
f 47/68/97 44/65/92 48/70/99
f 44/65/92 45/67/95 48/70/99
s 18
f 46/69/100 47/68/101 49/71/102
f 49/71/102 47/68/101 50/72/103
f 47/68/101 48/70/104 50/72/103
f 50/72/103 48/70/104 51/73/105
s 19
f 49/71/106 50/72/107 52/74/108
f 52/74/108 50/72/107 53/75/109
f 50/72/107 51/73/110 53/75/109
f 53/75/109 51/73/110 54/76/111
f 52/74/108 53/75/109 37/77/112
f 37/77/112 53/75/109 38/78/113
f 53/75/109 54/76/111 38/78/113
f 38/78/113 54/76/111 39/79/114
s 20
f 51/80/115 48/81/116 54/82/117
f 54/82/117 48/81/116 45/83/118
f 39/63/119 54/82/117 42/64/120
f 42/64/120 54/82/117 45/83/118
s 21
f 49/84/121 52/85/122 46/86/123
f 46/86/123 52/85/122 43/87/124
f 37/59/125 40/61/126 52/85/122
f 52/85/122 40/61/126 43/87/124
s 22
f 55/88/127 56/89/128 58/90/129
f 58/90/129 56/89/128 59/91/130
f 57/92/131 60/93/132 56/89/128
f 56/89/128 60/93/132 59/91/130
s 23
f 59/91/133 62/94/134 58/90/135
f 58/90/135 62/94/134 61/95/136
f 63/96/137 62/94/134 60/93/138
f 59/91/133 60/93/138 62/94/134
f 65/97/139 64/98/140 62/94/134
f 61/95/136 62/94/134 64/98/140
f 65/97/139 62/94/134 66/99/141
f 62/94/134 63/96/137 66/99/141
s 25
f 64/98/142 65/97/143 67/100/144
f 67/100/144 65/97/143 68/101/145
f 65/97/143 66/99/146 68/101/145
f 68/101/145 66/99/146 69/102/147
s 26
f 67/100/148 68/101/149 70/103/150
f 70/103/150 68/101/149 71/104/151
f 68/101/149 69/102/152 71/104/151
f 71/104/151 69/102/152 72/105/153
f 70/103/150 71/104/151 55/106/154
f 55/106/154 71/104/151 56/107/155
f 71/104/151 72/105/153 56/107/155
f 56/107/155 72/105/153 57/108/156
s 27
f 69/109/157 66/110/158 72/111/159
f 72/111/159 66/110/158 63/112/160
f 57/92/161 72/111/159 60/93/162
f 60/93/162 72/111/159 63/112/160
s 28
f 67/113/163 70/114/164 64/115/165
f 64/115/165 70/114/164 61/116/166
f 55/88/167 58/90/168 70/114/164
f 70/114/164 58/90/168 61/116/166
