# This file uses centimeters as units for non-parametric coordinates.

mtllib octoTrident.mtl
g default
v 1.450213 -7.467170 -0.132386
v 1.337599 -7.467170 -0.214205
v 1.198400 -7.467170 -0.214205
v 1.085786 -7.467170 -0.132386
v 1.042771 -7.467170 0.000000
v 1.085786 -7.467170 0.132386
v 1.198400 -7.467170 0.214205
v 1.337599 -7.467170 0.214205
v 1.450213 -7.467170 0.132386
v 1.493228 -7.467170 0.000000
v 1.450213 -4.296375 -0.132386
v 1.337599 -4.296375 -0.214205
v 1.198400 -4.296375 -0.214205
v 1.085786 -4.296375 -0.132386
v 1.042771 -4.296375 0.000000
v 1.085786 -4.296375 0.132386
v 1.198400 -4.296375 0.214205
v 1.337599 -4.296375 0.214205
v 1.450213 -4.296375 0.132386
v 1.493228 -4.296375 0.000000
v 1.268000 -7.823894 0.000000
v 1.268000 -4.296375 0.000000
v 0.177214 -7.467170 -0.132386
v 0.064599 -7.467170 -0.214205
v -0.074599 -7.467170 -0.214205
v -0.187214 -7.467170 -0.132386
v -0.230228 -7.467170 0.000000
v -0.187214 -7.467170 0.132386
v -0.074599 -7.467170 0.214205
v 0.064599 -7.467170 0.214205
v 0.177214 -7.467170 0.132386
v 0.220228 -7.467170 0.000000
v 0.177214 -4.296375 -0.132386
v 0.064599 -4.296375 -0.214205
v -0.074599 -4.296375 -0.214205
v -0.187214 -4.296375 -0.132386
v -0.230228 -4.296375 0.000000
v -0.187214 -4.296375 0.132386
v -0.074599 -4.296375 0.214205
v 0.064599 -4.296375 0.214205
v 0.177214 -4.296375 0.132386
v 0.220228 -4.296375 0.000000
v -0.005000 -7.823894 0.000000
v -0.005000 -4.296375 0.000000
v -1.095479 -7.467170 -0.132386
v -1.208093 -7.467170 -0.214205
v -1.347292 -7.467170 -0.214205
v -1.459906 -7.467170 -0.132386
v -1.502921 -7.467170 0.000000
v -1.459906 -7.467170 0.132386
v -1.347292 -7.467170 0.214205
v -1.208093 -7.467170 0.214205
v -1.095479 -7.467170 0.132386
v -1.052464 -7.467170 0.000000
v -1.095479 -4.296375 -0.132386
v -1.208093 -4.296375 -0.214205
v -1.347292 -4.296375 -0.214205
v -1.459906 -4.296375 -0.132386
v -1.502921 -4.296375 0.000000
v -1.459906 -4.296375 0.132386
v -1.347292 -4.296375 0.214205
v -1.208093 -4.296375 0.214205
v -1.095479 -4.296375 0.132386
v -1.052464 -4.296375 0.000000
v -1.277692 -7.823894 0.000000
v -1.277692 -4.296375 0.000000
v -1.547504 -4.341172 0.421198
v 1.547504 -4.341172 0.421198
v -1.547504 -3.706202 0.421198
v 1.547504 -3.706202 0.421198
v -1.547504 -3.706202 -0.421198
v 1.547504 -3.706202 -0.421198
v -1.547504 -4.341172 -0.421198
v 1.547504 -4.341172 -0.421198
v 0.301934 -3.724971 -0.223282
v 0.112000 -3.724971 -0.361277
v -0.122772 -3.724971 -0.361277
v -0.312707 -3.724971 -0.223281
v -0.385256 -3.724971 0.000000
v -0.312707 -3.724971 0.223282
v -0.122772 -3.724971 0.361277
v 0.112000 -3.724971 0.361277
v 0.301934 -3.724971 0.223281
v 0.374483 -3.724971 0.000000
v 0.301934 7.823893 -0.223282
v 0.112000 7.823893 -0.361277
v -0.122772 7.823893 -0.361277
v -0.312707 7.823893 -0.223281
v -0.385256 7.823893 0.000000
v -0.312707 7.823893 0.223282
v -0.122772 7.823893 0.361277
v 0.112000 7.823893 0.361277
v 0.301934 7.823893 0.223281
v 0.374483 7.823893 0.000000
v -0.005386 -3.724971 0.000000
v -0.005386 7.823893 0.000000
vt 0.626409 0.064409
vt 0.548284 0.007647
vt 0.451716 0.007647
vt 0.373591 0.064409
vt 0.343750 0.156250
vt 0.373591 0.248091
vt 0.451716 0.304853
vt 0.548284 0.304853
vt 0.626409 0.248091
vt 0.656250 0.156250
vt 0.375000 0.312500
vt 0.400000 0.312500
vt 0.425000 0.312500
vt 0.450000 0.312500
vt 0.475000 0.312500
vt 0.500000 0.312500
vt 0.525000 0.312500
vt 0.550000 0.312500
vt 0.575000 0.312500
vt 0.600000 0.312500
vt 0.625000 0.312500
vt 0.375000 0.688440
vt 0.400000 0.688440
vt 0.425000 0.688440
vt 0.450000 0.688440
vt 0.475000 0.688440
vt 0.500000 0.688440
vt 0.525000 0.688440
vt 0.550000 0.688440
vt 0.575000 0.688440
vt 0.600000 0.688440
vt 0.625000 0.688440
vt 0.626409 0.751909
vt 0.548284 0.695147
vt 0.451716 0.695147
vt 0.373591 0.751909
vt 0.343750 0.843750
vt 0.373591 0.935591
vt 0.451716 0.992353
vt 0.548284 0.992353
vt 0.626409 0.935591
vt 0.656250 0.843750
vt 0.500000 0.150000
vt 0.500000 0.837500
vt 0.375000 0.312500
vt 0.400000 0.312500
vt 0.400000 0.688440
vt 0.375000 0.688440
vt 0.425000 0.312500
vt 0.425000 0.688440
vt 0.450000 0.312500
vt 0.450000 0.688440
vt 0.475000 0.312500
vt 0.475000 0.688440
vt 0.500000 0.312500
vt 0.500000 0.688440
vt 0.525000 0.312500
vt 0.525000 0.688440
vt 0.550000 0.312500
vt 0.550000 0.688440
vt 0.575000 0.312500
vt 0.575000 0.688440
vt 0.600000 0.312500
vt 0.600000 0.688440
vt 0.625000 0.312500
vt 0.625000 0.688440
vt 0.548284 0.007647
vt 0.626409 0.064409
vt 0.500000 0.150000
vt 0.451716 0.007647
vt 0.373591 0.064409
vt 0.343750 0.156250
vt 0.373591 0.248091
vt 0.451716 0.304853
vt 0.548284 0.304853
vt 0.626409 0.248091
vt 0.656250 0.156250
vt 0.626409 0.935591
vt 0.548284 0.992353
vt 0.500000 0.837500
vt 0.451716 0.992353
vt 0.373591 0.935591
vt 0.343750 0.843750
vt 0.373591 0.751909
vt 0.451716 0.695147
vt 0.548284 0.695147
vt 0.626409 0.751909
vt 0.656250 0.843750
vt 0.375000 0.312500
vt 0.400000 0.312500
vt 0.400000 0.688440
vt 0.375000 0.688440
vt 0.425000 0.312500
vt 0.425000 0.688440
vt 0.450000 0.312500
vt 0.450000 0.688440
vt 0.475000 0.312500
vt 0.475000 0.688440
vt 0.500000 0.312500
vt 0.500000 0.688440
vt 0.525000 0.312500
vt 0.525000 0.688440
vt 0.550000 0.312500
vt 0.550000 0.688440
vt 0.575000 0.312500
vt 0.575000 0.688440
vt 0.600000 0.312500
vt 0.600000 0.688440
vt 0.625000 0.312500
vt 0.625000 0.688440
vt 0.548284 0.007647
vt 0.626409 0.064409
vt 0.500000 0.150000
vt 0.451716 0.007647
vt 0.373591 0.064409
vt 0.343750 0.156250
vt 0.373591 0.248091
vt 0.451716 0.304853
vt 0.548284 0.304853
vt 0.626409 0.248091
vt 0.656250 0.156250
vt 0.626409 0.935591
vt 0.548284 0.992353
vt 0.500000 0.837500
vt 0.451716 0.992353
vt 0.373591 0.935591
vt 0.343750 0.843750
vt 0.373591 0.751909
vt 0.451716 0.695147
vt 0.548284 0.695147
vt 0.626409 0.751909
vt 0.656250 0.843750
vt 0.375000 0.000000
vt 0.625000 0.000000
vt 0.625000 0.250000
vt 0.375000 0.250000
vt 0.625000 0.500000
vt 0.375000 0.500000
vt 0.625000 0.750000
vt 0.375000 0.750000
vt 0.625000 1.000000
vt 0.375000 1.000000
vt 0.875000 0.000000
vt 0.875000 0.250000
vt 0.125000 0.000000
vt 0.125000 0.250000
vt 0.375000 0.312500
vt 0.400000 0.312500
vt 0.400000 0.688440
vt 0.375000 0.688440
vt 0.425000 0.312500
vt 0.425000 0.688440
vt 0.450000 0.312500
vt 0.450000 0.688440
vt 0.475000 0.312500
vt 0.475000 0.688440
vt 0.500000 0.312500
vt 0.500000 0.688440
vt 0.525000 0.312500
vt 0.525000 0.688440
vt 0.550000 0.312500
vt 0.550000 0.688440
vt 0.575000 0.312500
vt 0.575000 0.688440
vt 0.600000 0.312500
vt 0.600000 0.688440
vt 0.625000 0.312500
vt 0.625000 0.688440
vt 0.548284 0.007647
vt 0.626409 0.064409
vt 0.500000 0.150000
vt 0.451716 0.007647
vt 0.373591 0.064409
vt 0.343750 0.156250
vt 0.373591 0.248091
vt 0.451716 0.304853
vt 0.548284 0.304853
vt 0.626409 0.248091
vt 0.656250 0.156250
vt 0.626409 0.935591
vt 0.548284 0.992353
vt 0.500000 0.837500
vt 0.451716 0.992353
vt 0.373591 0.935591
vt 0.343750 0.843750
vt 0.373591 0.751909
vt 0.451716 0.695147
vt 0.548284 0.695147
vt 0.626409 0.751909
vt 0.656250 0.843750
vn 0.587784 0.000000 -0.809018
vn 0.587784 0.000000 -0.809018
vn 0.587784 0.000000 -0.809018
vn 0.587784 0.000000 -0.809018
vn 0.000000 0.000000 -1.000000
vn -0.000000 0.000000 -1.000000
vn -0.000000 0.000000 -1.000000
vn -0.000000 0.000000 -1.000000
vn -0.587784 0.000000 -0.809018
vn -0.587784 0.000000 -0.809018
vn -0.587784 0.000000 -0.809018
vn -0.587784 0.000000 -0.809018
vn -0.951057 0.000000 -0.309015
vn -0.951057 0.000000 -0.309015
vn -0.951057 0.000000 -0.309015
vn -0.951057 0.000000 -0.309015
vn -0.951057 0.000000 0.309015
vn -0.951057 0.000000 0.309015
vn -0.951057 0.000000 0.309015
vn -0.951057 0.000000 0.309015
vn -0.587784 0.000000 0.809018
vn -0.587784 0.000000 0.809018
vn -0.587784 0.000000 0.809018
vn -0.587784 0.000000 0.809018
vn 0.000000 0.000000 1.000000
vn 0.000000 0.000000 1.000000
vn 0.000000 0.000000 1.000000
vn 0.000000 0.000000 1.000000
vn 0.587784 0.000000 0.809018
vn 0.587784 0.000000 0.809018
vn 0.587784 0.000000 0.809018
vn 0.587784 0.000000 0.809018
vn 0.951057 0.000000 0.309015
vn 0.951057 0.000000 0.309015
vn 0.951057 0.000000 0.309015
vn 0.951057 0.000000 0.309015
vn 0.951057 0.000000 -0.309015
vn 0.951057 0.000000 -0.309015
vn 0.951057 0.000000 -0.309015
vn 0.951057 0.000000 -0.309015
vn 0.261294 -0.533873 -0.804180
vn 0.684076 -0.533874 -0.497010
vn -0.000000 -1.000000 -0.000000
vn -0.261295 -0.533872 -0.804180
vn -0.684077 -0.533872 -0.497011
vn -0.845565 -0.533873 0.000000
vn -0.684076 -0.533873 0.497011
vn -0.261294 -0.533873 0.804180
vn 0.261294 -0.533872 0.804181
vn 0.684077 -0.533871 0.497011
vn 0.845564 -0.533874 -0.000000
vn 0.000000 1.000000 0.000000
vn 0.000000 1.000000 0.000000
vn 0.000000 1.000000 -0.000000
vn 0.000000 1.000000 0.000001
vn 0.000000 1.000000 0.000001
vn 0.000000 1.000000 0.000000
vn 0.000000 1.000000 0.000000
vn 0.000000 1.000000 0.000000
vn 0.000000 1.000000 -0.000001
vn 0.000000 1.000000 -0.000001
vn 0.000000 1.000000 0.000000
vn 0.587784 0.000000 -0.809018
vn 0.587784 0.000000 -0.809018
vn 0.587784 0.000000 -0.809018
vn 0.587784 0.000000 -0.809018
vn 0.000000 0.000000 -1.000000
vn -0.000000 0.000000 -1.000000
vn -0.000000 0.000000 -1.000000
vn -0.000000 0.000000 -1.000000
vn -0.587784 0.000000 -0.809018
vn -0.587784 0.000000 -0.809018
vn -0.587784 0.000000 -0.809018
vn -0.587784 0.000000 -0.809018
vn -0.951057 0.000000 -0.309015
vn -0.951057 0.000000 -0.309015
vn -0.951057 0.000000 -0.309015
vn -0.951057 0.000000 -0.309015
vn -0.951057 0.000000 0.309015
vn -0.951057 0.000000 0.309015
vn -0.951057 0.000000 0.309015
vn -0.951057 0.000000 0.309015
vn -0.587784 0.000000 0.809018
vn -0.587784 0.000000 0.809018
vn -0.587784 0.000000 0.809018
vn -0.587784 0.000000 0.809018
vn 0.000000 0.000000 1.000000
vn 0.000000 0.000000 1.000000
vn 0.000000 0.000000 1.000000
vn 0.000000 0.000000 1.000000
vn 0.587784 0.000000 0.809018
vn 0.587784 0.000000 0.809018
vn 0.587784 0.000000 0.809018
vn 0.587784 0.000000 0.809018
vn 0.951057 0.000000 0.309015
vn 0.951057 0.000000 0.309015
vn 0.951057 0.000000 0.309015
vn 0.951057 0.000000 0.309015
vn 0.951057 0.000000 -0.309015
vn 0.951057 0.000000 -0.309015
vn 0.951057 0.000000 -0.309015
vn 0.951057 0.000000 -0.309015
vn 0.261294 -0.533873 -0.804180
vn 0.684076 -0.533873 -0.497011
vn 0.000000 -1.000000 -0.000001
vn -0.261294 -0.533875 -0.804179
vn -0.684076 -0.533873 -0.497011
vn -0.845567 -0.533870 0.000000
vn -0.684076 -0.533874 0.497010
vn -0.261293 -0.533875 0.804179
vn 0.261294 -0.533873 0.804180
vn 0.684076 -0.533873 0.497011
vn 0.845566 -0.533871 -0.000000
vn 0.000000 1.000000 0.000000
vn 0.000000 1.000000 0.000000
vn 0.000000 1.000000 -0.000000
vn 0.000000 1.000000 0.000001
vn 0.000000 1.000000 0.000001
vn 0.000000 1.000000 0.000000
vn 0.000000 1.000000 0.000000
vn 0.000000 1.000000 0.000000
vn 0.000000 1.000000 -0.000001
vn 0.000000 1.000000 -0.000001
vn 0.000000 1.000000 0.000000
vn 0.587786 0.000000 -0.809017
vn 0.587786 0.000000 -0.809017
vn 0.587786 0.000000 -0.809017
vn 0.587786 0.000000 -0.809017
vn 0.000000 0.000000 -1.000000
vn -0.000000 0.000000 -1.000000
vn -0.000000 0.000000 -1.000000
vn -0.000000 0.000000 -1.000000
vn -0.587786 0.000000 -0.809017
vn -0.587786 0.000000 -0.809016
vn -0.587786 0.000000 -0.809017
vn -0.587786 0.000000 -0.809017
vn -0.951056 0.000000 -0.309018
vn -0.951056 0.000000 -0.309018
vn -0.951056 0.000000 -0.309018
vn -0.951056 0.000000 -0.309018
vn -0.951056 0.000000 0.309018
vn -0.951056 0.000000 0.309018
vn -0.951056 0.000000 0.309018
vn -0.951056 0.000000 0.309018
vn -0.587786 0.000000 0.809017
vn -0.587786 0.000000 0.809017
vn -0.587786 0.000000 0.809017
vn -0.587786 0.000000 0.809017
vn 0.000000 0.000000 1.000000
vn 0.000000 0.000000 1.000000
vn 0.000000 0.000000 1.000000
vn 0.000000 0.000000 1.000000
vn 0.587786 0.000000 0.809017
vn 0.587786 0.000000 0.809016
vn 0.587786 0.000000 0.809017
vn 0.587786 0.000000 0.809017
vn 0.951056 0.000000 0.309018
vn 0.951056 0.000000 0.309018
vn 0.951056 0.000000 0.309018
vn 0.951056 0.000000 0.309018
vn 0.951056 0.000000 -0.309018
vn 0.951056 0.000000 -0.309018
vn 0.951056 0.000000 -0.309018
vn 0.951056 0.000000 -0.309018
vn 0.261294 -0.533873 -0.804180
vn 0.684076 -0.533873 -0.497011
vn -0.000000 -1.000000 -0.000001
vn -0.261294 -0.533873 -0.804180
vn -0.684076 -0.533873 -0.497011
vn -0.845563 -0.533876 0.000000
vn -0.684076 -0.533874 0.497010
vn -0.261293 -0.533874 0.804179
vn 0.261294 -0.533873 0.804180
vn 0.684076 -0.533873 0.497011
vn 0.845563 -0.533876 0.000000
vn 0.000000 1.000000 0.000000
vn 0.000000 1.000000 0.000000
vn 0.000000 1.000000 -0.000000
vn 0.000000 1.000000 0.000000
vn 0.000000 1.000000 0.000002
vn 0.000000 1.000000 0.000002
vn 0.000000 1.000000 0.000000
vn 0.000000 1.000000 0.000000
vn 0.000000 1.000000 0.000000
vn 0.000000 1.000000 -0.000002
vn 0.000000 1.000000 -0.000002
vn 0.000000 0.000000 1.000000
vn 0.000000 0.000000 1.000000
vn 0.000000 0.000000 1.000000
vn 0.000000 0.000000 1.000000
vn 0.000000 1.000000 0.000000
vn 0.000000 1.000000 0.000000
vn 0.000000 1.000000 0.000000
vn 0.000000 1.000000 0.000000
vn 0.000000 0.000000 -1.000000
vn 0.000000 0.000000 -1.000000
vn 0.000000 0.000000 -1.000000
vn 0.000000 0.000000 -1.000000
vn 0.000000 -1.000000 0.000000
vn 0.000000 -1.000000 0.000000
vn 0.000000 -1.000000 0.000000
vn 0.000000 -1.000000 0.000000
vn 1.000000 0.000000 0.000000
vn 1.000000 0.000000 0.000000
vn 1.000000 0.000000 0.000000
vn 1.000000 0.000000 0.000000
vn -1.000000 0.000000 0.000000
vn -1.000000 0.000000 0.000000
vn -1.000000 0.000000 0.000000
vn -1.000000 0.000000 0.000000
vn 0.587785 0.000000 -0.809017
vn 0.587785 0.000000 -0.809017
vn 0.587785 0.000000 -0.809017
vn 0.587785 0.000000 -0.809017
vn 0.000000 0.000000 -1.000000
vn -0.000000 0.000000 -1.000000
vn -0.000000 0.000000 -1.000000
vn -0.000000 0.000000 -1.000000
vn -0.587785 0.000000 -0.809017
vn -0.587785 0.000000 -0.809017
vn -0.587785 0.000000 -0.809017
vn -0.587785 0.000000 -0.809017
vn -0.951056 0.000000 -0.309018
vn -0.951056 0.000000 -0.309018
vn -0.951056 0.000000 -0.309018
vn -0.951056 0.000000 -0.309018
vn -0.951056 0.000000 0.309018
vn -0.951056 0.000000 0.309018
vn -0.951056 0.000000 0.309018
vn -0.951056 0.000000 0.309018
vn -0.587785 0.000000 0.809017
vn -0.587785 0.000000 0.809017
vn -0.587785 0.000000 0.809017
vn -0.587785 0.000000 0.809017
vn 0.000000 0.000000 1.000000
vn 0.000000 0.000000 1.000000
vn 0.000000 0.000000 1.000000
vn 0.000000 0.000000 1.000000
vn 0.587785 0.000000 0.809017
vn 0.587785 0.000000 0.809017
vn 0.587785 0.000000 0.809017
vn 0.587785 0.000000 0.809017
vn 0.951056 0.000000 0.309018
vn 0.951056 0.000000 0.309018
vn 0.951056 0.000000 0.309018
vn 0.951056 0.000000 0.309018
vn 0.951056 0.000000 -0.309018
vn 0.951056 0.000000 -0.309018
vn 0.951056 0.000000 -0.309018
vn 0.951056 0.000000 -0.309018
vn 0.000000 -1.000000 0.000000
vn 0.000000 -1.000000 0.000000
vn 0.000000 -1.000000 0.000000
vn 0.000000 -1.000000 0.000000
vn 0.000000 -1.000000 0.000000
vn 0.000000 -1.000000 0.000000
vn 0.000000 -1.000000 0.000000
vn 0.000000 -1.000000 0.000000
vn 0.000000 -1.000000 0.000000
vn 0.000000 -1.000000 0.000000
vn 0.000000 -1.000000 0.000000
vn 0.000000 1.000000 0.000000
vn 0.000000 1.000000 0.000000
vn 0.000000 1.000000 0.000000
vn 0.000000 1.000000 0.000000
vn 0.000000 1.000000 0.000000
vn 0.000000 1.000000 0.000000
vn 0.000000 1.000000 0.000000
vn 0.000000 1.000000 0.000000
vn 0.000000 1.000000 0.000000
vn 0.000000 1.000000 0.000000
vn 0.000000 1.000000 0.000000
s 1
g pCylinder6
usemtl initialShadingGroup
f 1/11/1 2/12/2 11/22/3
f 11/22/3 2/12/2 12/23/4
s 2
f 2/12/5 3/13/6 12/23/7
f 12/23/7 3/13/6 13/24/8
s 3
f 3/13/9 4/14/10 13/24/11
f 13/24/11 4/14/10 14/25/12
s 4
f 4/14/13 5/15/14 14/25/15
f 14/25/15 5/15/14 15/26/16
s 5
f 5/15/17 6/16/18 15/26/19
f 15/26/19 6/16/18 16/27/20
s 6
f 6/16/21 7/17/22 16/27/23
f 16/27/23 7/17/22 17/28/24
s 7
f 7/17/25 8/18/26 17/28/27
f 17/28/27 8/18/26 18/29/28
s 8
f 8/18/29 9/19/30 18/29/31
f 18/29/31 9/19/30 19/30/32
s 9
f 9/19/33 10/20/34 19/30/35
f 19/30/35 10/20/34 20/31/36
s 10
f 10/20/37 1/21/38 20/31/39
f 20/31/39 1/21/38 11/32/40
s 11
f 2/2/41 1/1/42 21/43/43
f 3/3/44 2/2/41 21/43/43
f 4/4/45 3/3/44 21/43/43
f 5/5/46 4/4/45 21/43/43
f 6/6/47 5/5/46 21/43/43
f 7/7/48 6/6/47 21/43/43
f 8/8/49 7/7/48 21/43/43
f 9/9/50 8/8/49 21/43/43
f 10/10/51 9/9/50 21/43/43
f 1/1/42 10/10/51 21/43/43
s 12
f 11/41/52 12/40/53 22/44/54
f 12/40/53 13/39/55 22/44/54
f 13/39/55 14/38/56 22/44/54
f 14/38/56 15/37/57 22/44/54
f 15/37/57 16/36/58 22/44/54
f 16/36/58 17/35/59 22/44/54
f 17/35/59 18/34/60 22/44/54
f 18/34/60 19/33/61 22/44/54
f 19/33/61 20/42/62 22/44/54
f 20/42/62 11/41/52 22/44/54
s 13
f 23/45/63 24/46/64 33/48/65
f 33/48/65 24/46/64 34/47/66
s 14
f 24/46/67 25/49/68 34/47/69
f 34/47/69 25/49/68 35/50/70
s 15
f 25/49/71 26/51/72 35/50/73
f 35/50/73 26/51/72 36/52/74
s 16
f 26/51/75 27/53/76 36/52/77
f 36/52/77 27/53/76 37/54/78
s 17
f 27/53/79 28/55/80 37/54/81
f 37/54/81 28/55/80 38/56/82
s 18
f 28/55/83 29/57/84 38/56/85
f 38/56/85 29/57/84 39/58/86
s 19
f 29/57/87 30/59/88 39/58/89
f 39/58/89 30/59/88 40/60/90
s 20
f 30/59/91 31/61/92 40/60/93
f 40/60/93 31/61/92 41/62/94
s 21
f 31/61/95 32/63/96 41/62/97
f 41/62/97 32/63/96 42/64/98
s 22
f 32/63/99 23/65/100 42/64/101
f 42/64/101 23/65/100 33/66/102
s 23
f 24/67/103 23/68/104 43/69/105
f 25/70/106 24/67/103 43/69/105
f 26/71/107 25/70/106 43/69/105
f 27/72/108 26/71/107 43/69/105
f 28/73/109 27/72/108 43/69/105
f 29/74/110 28/73/109 43/69/105
f 30/75/111 29/74/110 43/69/105
f 31/76/112 30/75/111 43/69/105
f 32/77/113 31/76/112 43/69/105
f 23/68/104 32/77/113 43/69/105
s 24
f 33/78/114 34/79/115 44/80/116
f 34/79/115 35/81/117 44/80/116
f 35/81/117 36/82/118 44/80/116
f 36/82/118 37/83/119 44/80/116
f 37/83/119 38/84/120 44/80/116
f 38/84/120 39/85/121 44/80/116
f 39/85/121 40/86/122 44/80/116
f 40/86/122 41/87/123 44/80/116
f 41/87/123 42/88/124 44/80/116
f 42/88/124 33/78/114 44/80/116
s 25
f 45/89/125 46/90/126 55/92/127
f 55/92/127 46/90/126 56/91/128
s 26
f 46/90/129 47/93/130 56/91/131
f 56/91/131 47/93/130 57/94/132
s 27
f 47/93/133 48/95/134 57/94/135
f 57/94/135 48/95/134 58/96/136
s 28
f 48/95/137 49/97/138 58/96/139
f 58/96/139 49/97/138 59/98/140
s 29
f 49/97/141 50/99/142 59/98/143
f 59/98/143 50/99/142 60/100/144
s 30
f 50/99/145 51/101/146 60/100/147
f 60/100/147 51/101/146 61/102/148
s 31
f 51/101/149 52/103/150 61/102/151
f 61/102/151 52/103/150 62/104/152
s 32
f 52/103/153 53/105/154 62/104/155
f 62/104/155 53/105/154 63/106/156
s 33
f 53/105/157 54/107/158 63/106/159
f 63/106/159 54/107/158 64/108/160
s 34
f 54/107/161 45/109/162 64/108/163
f 64/108/163 45/109/162 55/110/164
s 35
f 46/111/165 45/112/166 65/113/167
f 47/114/168 46/111/165 65/113/167
f 48/115/169 47/114/168 65/113/167
f 49/116/170 48/115/169 65/113/167
f 50/117/171 49/116/170 65/113/167
f 51/118/172 50/117/171 65/113/167
f 52/119/173 51/118/172 65/113/167
f 53/120/174 52/119/173 65/113/167
f 54/121/175 53/120/174 65/113/167
f 45/112/166 54/121/175 65/113/167
s 36
f 55/122/176 56/123/177 66/124/178
f 56/123/177 57/125/179 66/124/178
f 57/125/179 58/126/180 66/124/178
f 58/126/180 59/127/181 66/124/178
f 59/127/181 60/128/182 66/124/178
f 60/128/182 61/129/183 66/124/178
f 61/129/183 62/130/184 66/124/178
f 62/130/184 63/131/185 66/124/178
f 63/131/185 64/132/186 66/124/178
f 64/132/186 55/122/176 66/124/178
s 37
f 67/133/187 68/134/188 69/136/189
f 69/136/189 68/134/188 70/135/190
s 38
f 69/136/191 70/135/192 71/138/193
f 71/138/193 70/135/192 72/137/194
s 39
f 71/138/195 72/137/196 73/140/197
f 73/140/197 72/137/196 74/139/198
s 40
f 73/140/199 74/139/200 67/142/201
f 67/142/201 74/139/200 68/141/202
s 41
f 68/134/203 74/143/204 70/135/205
f 70/135/205 74/143/204 72/144/206
s 42
f 73/145/207 67/133/208 71/146/209
f 71/146/209 67/133/208 69/136/210
s 43
f 75/147/211 76/148/212 85/150/213
f 85/150/213 76/148/212 86/149/214
s 44
f 76/148/215 77/151/216 86/149/217
f 86/149/217 77/151/216 87/152/218
s 45
f 77/151/219 78/153/220 87/152/221
f 87/152/221 78/153/220 88/154/222
s 46
f 78/153/223 79/155/224 88/154/225
f 88/154/225 79/155/224 89/156/226
s 47
f 79/155/227 80/157/228 89/156/229
f 89/156/229 80/157/228 90/158/230
s 48
f 80/157/231 81/159/232 90/158/233
f 90/158/233 81/159/232 91/160/234
s 49
f 81/159/235 82/161/236 91/160/237
f 91/160/237 82/161/236 92/162/238
s 50
f 82/161/239 83/163/240 92/162/241
f 92/162/241 83/163/240 93/164/242
s 51
f 83/163/243 84/165/244 93/164/245
f 93/164/245 84/165/244 94/166/246
s 52
f 84/165/247 75/167/248 94/166/249
f 94/166/249 75/167/248 85/168/250
s 53
f 76/169/251 75/170/252 95/171/253
f 77/172/254 76/169/251 95/171/253
f 78/173/255 77/172/254 95/171/253
f 79/174/256 78/173/255 95/171/253
f 80/175/257 79/174/256 95/171/253
f 81/176/258 80/175/257 95/171/253
f 82/177/259 81/176/258 95/171/253
f 83/178/260 82/177/259 95/171/253
f 84/179/261 83/178/260 95/171/253
f 75/170/252 84/179/261 95/171/253
s 54
f 85/180/262 86/181/263 96/182/264
f 86/181/263 87/183/265 96/182/264
f 87/183/265 88/184/266 96/182/264
f 88/184/266 89/185/267 96/182/264
f 89/185/267 90/186/268 96/182/264
f 90/186/268 91/187/269 96/182/264
f 91/187/269 92/188/270 96/182/264
f 92/188/270 93/189/271 96/182/264
f 93/189/271 94/190/272 96/182/264
f 94/190/272 85/180/262 96/182/264
