# This file uses centimeters as units for non-parametric coordinates.

mtllib sign.mtl
g default
v 0.238353 -0.075622 2.620604
v 0.874271 -0.075622 2.620604
v 0.238353 2.758108 2.186144
v 0.874271 2.758108 2.186144
v 0.238353 2.021150 -2.620604
v 0.874271 2.021150 -2.620604
v 0.238353 -0.812580 -2.186144
v 0.874271 -0.812580 -2.186144
v -0.333957 -3.387139 0.807731
v -0.166978 -3.387139 0.807731
v 0.000000 -3.387139 0.807731
v 0.166978 -3.387139 0.807731
v 0.333957 -3.387139 0.807731
v -0.333957 -1.670592 0.569256
v -0.166978 -1.670592 0.569256
v 0.000000 -1.670592 0.569256
v 0.166978 -1.670592 0.569256
v 0.333957 -1.670592 0.569256
v -0.333957 0.045954 0.330780
v -0.166978 0.045954 0.330780
v 0.000000 0.045954 0.330780
v 0.166978 0.045954 0.330780
v 0.333957 0.045954 0.330780
v -0.333957 1.762501 0.092304
v -0.166978 1.762501 0.092304
v 0.000000 1.762501 0.092304
v 0.166978 1.762501 0.092304
v 0.333957 1.762501 0.092304
v -0.333957 3.479048 -0.146171
v -0.166978 3.479048 -0.146171
v 0.000000 3.479048 -0.146171
v 0.166978 3.479048 -0.146171
v 0.333957 3.479048 -0.146171
v -0.333957 3.456070 -0.311561
v -0.166978 3.456070 -0.311561
v 0.000000 3.456070 -0.311561
v 0.166978 3.456070 -0.311561
v 0.333957 3.456070 -0.311561
v -0.333957 3.433093 -0.476951
v -0.166978 3.433093 -0.476951
v 0.000000 3.433093 -0.476951
v 0.166978 3.433093 -0.476951
v 0.333957 3.433093 -0.476951
v -0.333957 3.410116 -0.642341
v -0.166978 3.410116 -0.642341
v 0.000000 3.410116 -0.642341
v 0.166978 3.410116 -0.642341
v 0.333957 3.410116 -0.642341
v -0.333957 3.387139 -0.807731
v -0.166978 3.387139 -0.807731
v 0.000000 3.387139 -0.807731
v 0.166978 3.387139 -0.807731
v 0.333957 3.387139 -0.807731
v -0.333957 1.670592 -0.569256
v -0.166978 1.670592 -0.569256
v 0.000000 1.670592 -0.569256
v 0.166978 1.670592 -0.569256
v 0.333957 1.670592 -0.569256
v -0.333957 -0.045954 -0.330780
v -0.166978 -0.045954 -0.330780
v 0.000000 -0.045954 -0.330780
v 0.166978 -0.045954 -0.330780
v 0.333957 -0.045954 -0.330780
v -0.333957 -1.762501 -0.092304
v -0.166978 -1.762501 -0.092304
v 0.000000 -1.762501 -0.092304
v 0.083080 -1.762501 0.038819
v 0.242180 -1.752012 -0.092304
v -0.333957 -3.479048 0.146171
v -0.166978 -3.479048 0.146171
v 0.000000 -3.479048 0.146171
v 0.166978 -3.479048 0.146171
v 0.333957 -3.479048 0.146171
v -0.333957 -3.456070 0.311561
v -0.166978 -3.456070 0.311561
v 0.000000 -3.456070 0.311561
v 0.166978 -3.456070 0.311561
v 0.333957 -3.456070 0.311561
v -0.333957 -3.433093 0.476951
v -0.166978 -3.433093 0.476951
v 0.000000 -3.433093 0.476951
v 0.166978 -3.433093 0.476951
v 0.333957 -3.433093 0.476951
v -0.333957 -3.410116 0.642341
v -0.166978 -3.410116 0.642341
v 0.000000 -3.410116 0.642341
v 0.166978 -3.410116 0.642341
v 0.333957 -3.410116 0.642341
v 0.333957 -1.739524 0.073086
v 0.333957 -1.716547 0.238476
v 0.333957 -1.693569 0.403866
v 0.333957 -0.022977 -0.165390
v 0.333957 0.000000 0.000000
v 0.333957 0.022977 0.165390
v 0.333957 1.693569 -0.403866
v 0.333957 1.716547 -0.238476
v 0.333957 1.739524 -0.073086
v -0.333957 -1.739524 0.073086
v -0.333957 -1.716547 0.238476
v -0.333957 -1.693569 0.403866
v -0.333957 -0.022977 -0.165390
v -0.333957 0.000000 0.000000
v -0.333957 0.022977 0.165390
v -0.333957 1.693569 -0.403866
v -0.333957 1.716547 -0.238476
v -0.333957 1.739524 -0.073086
vt 0.529926 0.498062
vt 0.460175 0.043113
vt 0.798133 0.456941
vt 0.728382 0.001992
vt 0.631281 0.956887
vt 0.701033 0.501938
vt 0.899488 0.998008
vt 0.969240 0.543059
vt 0.048896 0.004167
vt 0.064550 0.001992
vt 0.071467 0.166634
vt 0.087121 0.165453
vt 0.055813 0.168809
vt 0.094039 0.329102
vt 0.033242 0.006342
vt 0.078385 0.331277
vt 0.109692 0.326927
vt 0.040160 0.170984
vt 0.062731 0.333452
vt 0.116610 0.491570
vt 0.100956 0.493745
vt 0.017588 0.008516
vt 0.085302 0.495919
vt 0.132264 0.489395
vt 0.024506 0.173159
vt 0.047077 0.335626
vt 0.069648 0.498094
vt 0.139181 0.654038
vt 0.123527 0.656212
vt 0.107873 0.658387
vt 0.001935 0.010691
vt 0.092220 0.660562
vt 0.154835 0.651863
vt 0.251402 0.001992
vt 0.267056 0.004167
vt 0.228830 0.164460
vt 0.244484 0.166634
vt 0.282709 0.006342
vt 0.206259 0.326927
vt 0.260138 0.168809
vt 0.221913 0.329102
vt 0.298363 0.008516
vt 0.183688 0.489395
vt 0.275792 0.170984
vt 0.237567 0.331277
vt 0.199342 0.491570
vt 0.314017 0.010691
vt 0.161117 0.651863
vt 0.291446 0.173159
vt 0.253221 0.333452
vt 0.214996 0.493745
vt 0.176771 0.654038
vt 0.268874 0.335626
vt 0.230649 0.495919
vt 0.192424 0.656212
vt 0.246303 0.498094
vt 0.208078 0.658387
vt 0.223732 0.660562
vt 0.565134 0.501938
vt 0.625323 0.501938
vt 0.565134 0.956887
vt 0.625323 0.956887
vt 0.498988 0.501938
vt 0.559176 0.501938
vt 0.498988 0.956887
vt 0.559176 0.956887
vt 0.298120 0.727655
vt 0.298120 0.711851
vt 0.313774 0.727655
vt 0.313774 0.711851
vt 0.298120 0.696047
vt 0.329428 0.727655
vt 0.313774 0.696047
vt 0.329428 0.711851
vt 0.298120 0.680242
vt 0.345082 0.727655
vt 0.313774 0.680242
vt 0.329428 0.696047
vt 0.345082 0.711851
vt 0.298120 0.664438
vt 0.360736 0.727655
vt 0.313774 0.664438
vt 0.329428 0.680242
vt 0.345082 0.696047
vt 0.360736 0.711851
vt 0.329428 0.664438
vt 0.345082 0.680242
vt 0.360736 0.696047
vt 0.345082 0.664438
vt 0.360736 0.680242
vt 0.360736 0.664438
vt 0.229547 0.727655
vt 0.229547 0.711851
vt 0.245200 0.727655
vt 0.245200 0.711851
vt 0.229547 0.696047
vt 0.260854 0.727655
vt 0.245200 0.696047
vt 0.260854 0.711851
vt 0.229547 0.680242
vt 0.276508 0.727655
vt 0.245200 0.680242
vt 0.260854 0.696047
vt 0.276508 0.711851
vt 0.229547 0.664438
vt 0.292162 0.727655
vt 0.245200 0.664438
vt 0.260854 0.680242
vt 0.276508 0.696047
vt 0.292162 0.711851
vt 0.260854 0.664438
vt 0.276508 0.680242
vt 0.292162 0.696047
vt 0.276508 0.664438
vt 0.292162 0.680242
vt 0.292162 0.664438
vt 0.432841 0.655739
vt 0.493029 0.655739
vt 0.432841 0.923946
vt 0.493029 0.923946
vt 0.366694 0.655739
vt 0.426882 0.655739
vt 0.366694 0.923946
vt 0.426882 0.923946
vt 0.320110 0.001992
vt 0.335914 0.001992
vt 0.320110 0.164460
vt 0.335914 0.164460
vt 0.351718 0.001992
vt 0.320110 0.326927
vt 0.351718 0.164460
vt 0.335914 0.326927
vt 0.367522 0.001992
vt 0.320110 0.489395
vt 0.367522 0.164460
vt 0.351718 0.326927
vt 0.335914 0.489395
vt 0.383326 0.001992
vt 0.320110 0.651863
vt 0.383326 0.164460
vt 0.367522 0.326927
vt 0.351718 0.489395
vt 0.335914 0.651863
vt 0.383326 0.326927
vt 0.367522 0.489395
vt 0.351718 0.651863
vt 0.383326 0.489395
vt 0.367522 0.651863
vt 0.383326 0.651863
vt 0.390142 0.001992
vt 0.405946 0.001992
vt 0.390142 0.164460
vt 0.405946 0.164460
vt 0.421750 0.001992
vt 0.390142 0.326927
vt 0.421750 0.164460
vt 0.405946 0.326927
vt 0.437555 0.001992
vt 0.390142 0.489395
vt 0.437555 0.164460
vt 0.421750 0.326927
vt 0.405946 0.489395
vt 0.453359 0.001992
vt 0.390142 0.651863
vt 0.453359 0.164460
vt 0.437555 0.326927
vt 0.421750 0.489395
vt 0.405946 0.651863
vt 0.453359 0.326927
vt 0.429614 0.489395
vt 0.421750 0.651863
vt 0.444672 0.488402
vt 0.453359 0.651863
vt 0.437555 0.651863
vn 0.000000 0.151547 0.988450
vn 0.000000 0.151547 0.988450
vn 0.000000 0.151546 0.988450
vn 0.000000 0.151546 0.988450
vn 0.000000 0.988450 -0.151547
vn 0.000000 0.988450 -0.151547
vn 0.000000 0.988450 -0.151547
vn 0.000000 0.988450 -0.151547
vn 0.000000 -0.151547 -0.988450
vn 0.000000 -0.151547 -0.988450
vn 0.000000 -0.151547 -0.988450
vn 0.000000 -0.151547 -0.988450
vn 0.000000 -0.988450 0.151547
vn 0.000000 -0.988450 0.151547
vn 0.000000 -0.988450 0.151547
vn 0.000000 -0.988450 0.151547
vn 1.000000 -0.000000 0.000000
vn 1.000000 -0.000000 0.000000
vn 1.000000 -0.000000 0.000000
vn 1.000000 0.000000 0.000000
vn -1.000000 -0.000000 0.000000
vn -1.000000 -0.000000 0.000000
vn -1.000000 -0.000000 0.000000
vn -1.000000 0.000000 0.000000
vn 0.000000 0.137606 0.990487
vn 0.000000 0.137606 0.990487
vn 0.000000 0.137606 0.990487
vn 0.000000 0.137606 0.990487
vn 0.000000 0.137606 0.990487
vn 0.000000 0.137606 0.990487
vn 0.000000 0.137606 0.990487
vn 0.000000 0.137606 0.990487
vn 0.000000 0.137606 0.990487
vn 0.000000 0.137606 0.990487
vn 0.000000 0.137606 0.990487
vn 0.000000 0.137606 0.990487
vn 0.000000 0.137606 0.990487
vn 0.000000 0.137606 0.990487
vn 0.000000 0.137606 0.990487
vn 0.000000 0.137606 0.990487
vn 0.000000 0.137606 0.990487
vn 0.000000 0.137606 0.990487
vn 0.000000 0.137606 0.990487
vn 0.000000 0.137606 0.990487
vn 0.000000 0.137606 0.990487
vn 0.000000 0.137606 0.990487
vn 0.000000 0.137606 0.990487
vn 0.000000 0.137606 0.990487
vn 0.000000 0.137606 0.990487
vn 0.000000 0.990487 -0.137608
vn 0.000000 0.990487 -0.137608
vn 0.000000 0.990487 -0.137606
vn 0.000000 0.990487 -0.137606
vn 0.000000 0.990487 -0.137608
vn 0.000000 0.990487 -0.137606
vn 0.000000 0.990487 -0.137608
vn 0.000000 0.990487 -0.137606
vn 0.000000 0.990487 -0.137608
vn 0.000000 0.990487 -0.137607
vn 0.000000 0.990487 -0.137607
vn 0.000000 0.990487 -0.137607
vn 0.000000 0.990487 -0.137607
vn 0.000000 0.990487 -0.137607
vn 0.000000 0.990487 -0.137607
vn 0.000000 0.990487 -0.137605
vn 0.000000 0.990487 -0.137605
vn 0.000000 0.990487 -0.137605
vn 0.000000 0.990487 -0.137605
vn 0.000000 0.990487 -0.137605
vn 0.000000 0.990487 -0.137606
vn 0.000000 0.990487 -0.137607
vn 0.000000 0.990487 -0.137607
vn 0.000000 0.990487 -0.137607
vn 0.000000 0.990487 -0.137608
vn 0.000000 -0.137606 -0.990487
vn 0.000000 -0.137606 -0.990487
vn 0.000000 -0.137606 -0.990487
vn 0.000000 -0.137606 -0.990487
vn 0.000000 -0.137606 -0.990487
vn 0.000000 -0.137606 -0.990487
vn 0.000000 -0.137606 -0.990487
vn 0.000000 -0.137606 -0.990487
vn 0.000000 -0.137606 -0.990487
vn 0.000000 -0.137606 -0.990487
vn 0.000000 -0.137606 -0.990487
vn 0.000000 -0.137606 -0.990487
vn 0.000000 -0.137606 -0.990487
vn -0.003314 -0.139476 -0.990220
vn 0.000000 -0.138012 -0.990431
vn 0.000000 -0.137606 -0.990487
vn 0.000000 -0.137606 -0.990487
vn 0.448157 -0.145610 -0.882017
vn 0.025722 -0.181408 -0.983072
vn -0.612653 -0.137802 -0.778246
vn 0.000000 -0.137606 -0.990487
vn 0.000000 -0.137606 -0.990487
vn 0.022316 -0.101314 -0.994604
vn 0.000000 -0.062418 -0.998050
vn -0.059863 -0.071018 -0.995677
vn 0.000000 -0.990487 0.137608
vn 0.000000 -0.990487 0.137608
vn 0.000000 -0.990487 0.137606
vn 0.000000 -0.990487 0.137606
vn 0.000000 -0.990487 0.137608
vn 0.000000 -0.990487 0.137606
vn 0.000000 -0.990487 0.137608
vn 0.000000 -0.990487 0.137606
vn 0.000000 -0.990487 0.137608
vn 0.000000 -0.990487 0.137607
vn 0.000000 -0.990487 0.137607
vn 0.000000 -0.990487 0.137607
vn 0.000000 -0.990487 0.137607
vn 0.000000 -0.990487 0.137607
vn 0.000000 -0.990487 0.137607
vn 0.000000 -0.990487 0.137605
vn 0.000000 -0.990487 0.137605
vn 0.000000 -0.990487 0.137605
vn 0.000000 -0.990487 0.137605
vn 0.000000 -0.990487 0.137605
vn 0.000000 -0.990487 0.137606
vn 0.000000 -0.990487 0.137607
vn 0.000000 -0.990487 0.137607
vn 0.000000 -0.990487 0.137607
vn 0.000000 -0.990487 0.137608
vn 1.000000 0.000000 0.000000
vn 0.999282 -0.001591 -0.037867
vn 0.965913 -0.023138 -0.257830
vn 0.881330 -0.044063 -0.470442
vn 1.000000 0.000000 0.000000
vn 1.000000 0.000000 0.000000
vn 1.000000 0.000000 0.000000
vn 1.000000 0.000000 0.000000
vn 1.000000 0.000000 0.000000
vn 1.000000 0.000000 0.000000
vn 0.999877 -0.013622 -0.007765
vn 0.999648 -0.026289 0.003652
vn 1.000000 0.000000 0.000000
vn 1.000000 0.000000 0.000000
vn 1.000000 0.000000 0.000000
vn 1.000000 0.000000 0.000000
vn 1.000000 0.000000 0.000000
vn 1.000000 -0.000000 0.000000
vn 1.000000 0.000000 0.000000
vn 1.000000 0.000000 0.000000
vn 1.000000 0.000000 0.000000
vn 1.000000 0.000000 0.000000
vn 1.000000 -0.000000 0.000000
vn 1.000000 0.000000 0.000000
vn 1.000000 0.000000 0.000000
vn -1.000000 0.000000 0.000000
vn -1.000000 0.000000 0.000000
vn -1.000000 -0.000000 0.000000
vn -1.000000 -0.000000 0.000000
vn -1.000000 0.000000 0.000000
vn -1.000000 0.000000 0.000000
vn -1.000000 0.000000 0.000000
vn -1.000000 -0.000000 0.000000
vn -1.000000 -0.000000 0.000000
vn -1.000000 -0.000000 0.000000
vn -1.000000 0.000000 0.000000
vn -1.000000 0.000000 0.000000
vn -1.000000 0.000000 0.000000
vn -1.000000 -0.000000 0.000000
vn -1.000000 -0.000000 0.000000
vn -1.000000 -0.000000 0.000000
vn -1.000000 -0.000000 0.000000
vn -1.000000 0.000000 0.000000
vn -1.000000 0.000000 0.000000
vn -1.000000 0.000000 0.000000
vn -1.000000 -0.000000 0.000000
vn -1.000000 -0.000000 0.000000
vn -1.000000 0.000000 0.000000
vn -1.000000 -0.000000 0.000000
vn -1.000000 -0.000000 0.000000
s 1
g pCube3
usemtl initialShadingGroup
f 1/117/1 2/118/2 3/119/3
f 3/119/3 2/118/2 4/120/4
s 2
f 3/59/5 4/60/6 5/61/7
f 5/61/7 4/60/6 6/62/8
s 3
f 5/121/9 6/122/10 7/123/11
f 7/123/11 6/122/10 8/124/12
s 4
f 7/63/13 8/64/14 1/65/15
f 1/65/15 8/64/14 2/66/16
s 5
f 2/1/17 8/2/18 4/3/19
f 4/3/19 8/2/18 6/4/20
s 6
f 7/5/21 1/6/22 5/7/23
f 5/7/23 1/6/22 3/8/24
s 7
f 9/125/25 10/126/26 14/127/27
f 14/127/27 10/126/26 15/128/28
f 10/126/26 11/129/29 15/128/28
f 15/128/28 11/129/29 16/131/30
f 11/129/29 12/133/31 16/131/30
f 16/131/30 12/133/31 17/135/32
f 12/133/31 13/138/33 17/135/32
f 17/135/32 13/138/33 18/140/34
f 14/127/27 15/128/28 19/130/35
f 19/130/35 15/128/28 20/132/36
f 15/128/28 16/131/30 20/132/36
f 20/132/36 16/131/30 21/136/37
f 16/131/30 17/135/32 21/136/37
f 21/136/37 17/135/32 22/141/38
f 17/135/32 18/140/34 22/141/38
f 22/141/38 18/140/34 23/144/39
f 19/130/35 20/132/36 24/134/40
f 24/134/40 20/132/36 25/137/41
f 20/132/36 21/136/37 25/137/41
f 25/137/41 21/136/37 26/142/42
f 21/136/37 22/141/38 26/142/42
f 26/142/42 22/141/38 27/145/43
f 22/141/38 23/144/39 27/145/43
f 27/145/43 23/144/39 28/147/44
f 24/134/40 25/137/41 29/139/45
f 29/139/45 25/137/41 30/143/46
f 25/137/41 26/142/42 30/143/46
f 30/143/46 26/142/42 31/146/47
f 26/142/42 27/145/43 31/146/47
f 31/146/47 27/145/43 32/148/48
f 27/145/43 28/147/44 32/148/48
f 32/148/48 28/147/44 33/149/49
s 8
f 29/67/50 30/68/51 34/69/52
f 34/69/52 30/68/51 35/70/53
f 30/68/51 31/71/54 35/70/53
f 35/70/53 31/71/54 36/73/55
f 31/71/54 32/75/56 36/73/55
f 36/73/55 32/75/56 37/77/57
f 32/75/56 33/80/58 37/77/57
f 37/77/57 33/80/58 38/82/59
f 34/69/52 35/70/53 39/72/60
f 39/72/60 35/70/53 40/74/61
f 35/70/53 36/73/55 40/74/61
f 40/74/61 36/73/55 41/78/62
f 36/73/55 37/77/57 41/78/62
f 41/78/62 37/77/57 42/83/63
f 37/77/57 38/82/59 42/83/63
f 42/83/63 38/82/59 43/86/64
f 39/72/60 40/74/61 44/76/65
f 44/76/65 40/74/61 45/79/66
f 40/74/61 41/78/62 45/79/66
f 45/79/66 41/78/62 46/84/67
f 41/78/62 42/83/63 46/84/67
f 46/84/67 42/83/63 47/87/68
f 42/83/63 43/86/64 47/87/68
f 47/87/68 43/86/64 48/89/69
f 44/76/65 45/79/66 49/81/70
f 49/81/70 45/79/66 50/85/71
f 45/79/66 46/84/67 50/85/71
f 50/85/71 46/84/67 51/88/72
f 46/84/67 47/87/68 51/88/72
f 51/88/72 47/87/68 52/90/73
f 47/87/68 48/89/69 52/90/73
f 52/90/73 48/89/69 53/91/74
s 9
f 49/150/75 50/151/76 54/152/77
f 54/152/77 50/151/76 55/153/78
f 50/151/76 51/154/79 55/153/78
f 55/153/78 51/154/79 56/156/80
f 51/154/79 52/158/81 56/156/80
f 56/156/80 52/158/81 57/160/82
f 52/158/81 53/163/83 57/160/82
f 57/160/82 53/163/83 58/165/84
f 54/152/77 55/153/78 59/155/85
f 59/155/85 55/153/78 60/157/86
f 55/153/78 56/156/80 60/157/86
f 60/157/86 56/156/80 61/161/87
f 56/156/80 57/160/82 61/161/87
f 61/161/87 57/160/82 62/166/88
f 57/160/82 58/165/84 62/166/88
f 62/166/88 58/165/84 63/169/89
f 59/155/85 60/157/86 64/159/90
f 64/159/90 60/157/86 65/162/91
f 60/157/86 61/161/87 65/162/91
f 65/162/91 61/161/87 66/167/92
f 61/161/87 62/166/88 66/167/92
f 66/167/92 62/166/88 67/170/93
f 63/169/89 68/172/94 62/166/88
f 62/166/88 68/172/94 67/170/93
f 64/159/90 65/162/91 69/164/95
f 69/164/95 65/162/91 70/168/96
f 65/162/91 66/167/92 70/168/96
f 70/168/96 66/167/92 71/171/97
f 66/167/92 67/170/93 71/171/97
f 71/171/97 67/170/93 72/174/98
f 68/172/94 73/173/99 67/170/93
f 67/170/93 73/173/99 72/174/98
s 10
f 69/92/100 70/93/101 74/94/102
f 74/94/102 70/93/101 75/95/103
f 70/93/101 71/96/104 75/95/103
f 75/95/103 71/96/104 76/98/105
f 71/96/104 72/100/106 76/98/105
f 76/98/105 72/100/106 77/102/107
f 72/100/106 73/105/108 77/102/107
f 77/102/107 73/105/108 78/107/109
f 74/94/102 75/95/103 79/97/110
f 79/97/110 75/95/103 80/99/111
f 75/95/103 76/98/105 80/99/111
f 80/99/111 76/98/105 81/103/112
f 76/98/105 77/102/107 81/103/112
f 81/103/112 77/102/107 82/108/113
f 77/102/107 78/107/109 82/108/113
f 82/108/113 78/107/109 83/111/114
f 79/97/110 80/99/111 84/101/115
f 84/101/115 80/99/111 85/104/116
f 80/99/111 81/103/112 85/104/116
f 85/104/116 81/103/112 86/109/117
f 81/103/112 82/108/113 86/109/117
f 86/109/117 82/108/113 87/112/118
f 82/108/113 83/111/114 87/112/118
f 87/112/118 83/111/114 88/114/119
f 84/101/115 85/104/116 9/106/120
f 9/106/120 85/104/116 10/110/121
f 85/104/116 86/109/117 10/110/121
f 10/110/121 86/109/117 11/113/122
f 86/109/117 87/112/118 11/113/122
f 11/113/122 87/112/118 12/115/123
f 87/112/118 88/114/119 12/115/123
f 12/115/123 88/114/119 13/116/124
s 11
f 78/9/125 73/10/126 89/11/127
f 89/11/127 73/10/126 68/12/128
f 83/15/129 78/9/125 90/13/130
f 90/13/130 78/9/125 89/11/127
f 88/22/131 83/15/129 91/18/132
f 91/18/132 83/15/129 90/13/130
f 13/31/133 88/22/131 18/25/134
f 18/25/134 88/22/131 91/18/132
f 89/11/127 68/12/128 92/14/135
f 92/14/135 68/12/128 63/17/136
f 90/13/130 89/11/127 93/16/137
f 93/16/137 89/11/127 92/14/135
f 91/18/132 90/13/130 94/19/138
f 94/19/138 90/13/130 93/16/137
f 18/25/134 91/18/132 23/26/139
f 23/26/139 91/18/132 94/19/138
f 92/14/135 63/17/136 95/20/140
f 95/20/140 63/17/136 58/24/141
f 93/16/137 92/14/135 96/21/142
f 96/21/142 92/14/135 95/20/140
f 94/19/138 93/16/137 97/23/143
f 97/23/143 93/16/137 96/21/142
f 23/26/139 94/19/138 28/27/144
f 28/27/144 94/19/138 97/23/143
f 95/20/140 58/24/141 48/28/145
f 48/28/145 58/24/141 53/33/146
f 96/21/142 95/20/140 43/29/147
f 43/29/147 95/20/140 48/28/145
f 97/23/143 96/21/142 38/30/148
f 38/30/148 96/21/142 43/29/147
f 28/27/144 97/23/143 33/32/149
f 33/32/149 97/23/143 38/30/148
s 12
f 69/34/150 74/35/151 64/36/152
f 64/36/152 74/35/151 98/37/153
f 74/35/151 79/38/154 98/37/153
f 98/37/153 79/38/154 99/40/155
f 79/38/154 84/42/156 99/40/155
f 99/40/155 84/42/156 100/44/157
f 84/42/156 9/47/158 100/44/157
f 100/44/157 9/47/158 14/49/159
f 64/36/152 98/37/153 59/39/160
f 59/39/160 98/37/153 101/41/161
f 98/37/153 99/40/155 101/41/161
f 101/41/161 99/40/155 102/45/162
f 99/40/155 100/44/157 102/45/162
f 102/45/162 100/44/157 103/50/163
f 100/44/157 14/49/159 103/50/163
f 103/50/163 14/49/159 19/53/164
f 59/39/160 101/41/161 54/43/165
f 54/43/165 101/41/161 104/46/166
f 101/41/161 102/45/162 104/46/166
f 104/46/166 102/45/162 105/51/167
f 102/45/162 103/50/163 105/51/167
f 105/51/167 103/50/163 106/54/168
f 103/50/163 19/53/164 106/54/168
f 106/54/168 19/53/164 24/56/169
f 54/43/165 104/46/166 49/48/170
f 49/48/170 104/46/166 44/52/171
f 104/46/166 105/51/167 44/52/171
f 44/52/171 105/51/167 39/55/172
f 105/51/167 106/54/168 39/55/172
f 39/55/172 106/54/168 34/57/173
f 106/54/168 24/56/169 34/57/173
f 34/57/173 24/56/169 29/58/174
